HIERARCHY
ROOT Hips
{
  OFFSET 90.7885 88.945 -76.2838
  CHANNELS 6 Xposition Yposition Zposition Zrotation Xrotation Yrotation
  JOINT LeftUpLeg
  {
    OFFSET 8.64259 1.95398 -2.38835
    CHANNELS 3 Zrotation Xrotation Yrotation
    JOINT LeftLeg
    {
      OFFSET 43.7702 0 0
      CHANNELS 3 Zrotation Xrotation Yrotation
      JOINT LeftFoot
      {
        OFFSET 40.6238 0 0
        CHANNELS 3 Zrotation Xrotation Yrotation
        JOINT LeftToeBase
        {
          OFFSET 12.7242 0 0
          CHANNELS 3 Zrotation Xrotation Yrotation
          End Site
          {
            OFFSET 0 0 0
          }
        }
      }
    }
  }
  JOINT RightUpLeg
  {
    OFFSET -8.2249 1.95398 -2.59336
    CHANNELS 3 Zrotation Xrotation Yrotation
    JOINT RightLeg
    {
      OFFSET 43.5653 0 0
      CHANNELS 3 Zrotation Xrotation Yrotation
      JOINT RightFoot
      {
        OFFSET 40.6238 0 0
        CHANNELS 3 Zrotation Xrotation Yrotation
        JOINT RightToeBase
        {
          OFFSET 12.7242 0 0
          CHANNELS 3 Zrotation Xrotation Yrotation
          End Site
          {
            OFFSET 0 0 0
          }
        }
      }
    }
  }
  JOINT Spine
  {
    OFFSET 0.165834 0.87714 6.61349
    CHANNELS 3 Zrotation Xrotation Yrotation
    JOINT Spine1
    {
      OFFSET 7.38963 1.71661e-005 0
      CHANNELS 3 Zrotation Xrotation Yrotation
      JOINT Spine2
      {
        OFFSET 11.9445 1.14441e-005 0
        CHANNELS 3 Zrotation Xrotation Yrotation
        JOINT Spine3
        {
          OFFSET 14.7254 4.19617e-005 0
          CHANNELS 3 Zrotation Xrotation Yrotation
          JOINT Spine4
          {
            OFFSET 10.9679 0 0
            CHANNELS 3 Zrotation Xrotation Yrotation
            JOINT RightShoulder
            {
              OFFSET 2.46616 -1.6653 3.69651
              CHANNELS 3 Zrotation Xrotation Yrotation
              JOINT RightArm
              {
                OFFSET 13.0012 0 0
                CHANNELS 3 Zrotation Xrotation Yrotation
                JOINT RightForeArm
                {
                  OFFSET 28.7848 1.52588e-005 0
                  CHANNELS 3 Zrotation Xrotation Yrotation
                  JOINT RightHand
                  {
                    OFFSET 26.5688 1.52588e-005 0
                    CHANNELS 3 Zrotation Xrotation Yrotation
                    End Site
                    {
                      OFFSET 0 0 0
                    }
                  }
                }
              }
            }
            JOINT LeftShoulder
            {
              OFFSET 2.38034 -1.29275 -3.7523
              CHANNELS 3 Zrotation Xrotation Yrotation
              JOINT LeftArm
              {
                OFFSET 16.3182 6.10352e-005 0
                CHANNELS 3 Zrotation Xrotation Yrotation
                JOINT LeftForeArm
                {
                  OFFSET 27.0901 0 0
                  CHANNELS 3 Zrotation Xrotation Yrotation
                  JOINT LeftHand
                  {
                    OFFSET 24.5451 1.52588e-005 0
                    CHANNELS 3 Zrotation Xrotation Yrotation
                    End Site
                    {
                      OFFSET 0 0 0
                    }
                  }
                }
              }
            }
            JOINT Neck
            {
              OFFSET 5.0226 -0.0266342 0
              CHANNELS 3 Zrotation Xrotation Yrotation
              JOINT Head
              {
                OFFSET 6.69363 2.86102e-005 0
                CHANNELS 3 Zrotation Xrotation Yrotation
                End Site
                {
                  OFFSET 0 0 0
                }
              }
            }
          }
        }
      }
    }
  }
}
MOTION
Frames:	15
Frame Time:	0.0416667
41.587 88.5846 -202.46 -165.104 -86.8455 -159.777 -165.1 4.12886 102.111 -87.6339 5.57358 4.15172 61.1023 0.996505 5.28069 33.253 4.37965 -7.80732 176.819 36.3585 100.487 -55.9503 -18.4954 -0.00848106 72.7112 -7.39539 -7.44008 13.9218 -1.66365 5.56267 -1.90669 7.96098 -91.4464 10.9022 -4.46482 -2.45661 -0.762983 -4.56858 -2.25749 -23.3214 -3.52046 -3.6852 -3.30871 -3.52046 -3.68521 93.9582 -29.4673 -98.9765 35.6082 11.0487 26.4364 -51.7297 -37.8348 -79.8428 -49.6916 9.93547 -41.6479 -91.0069 -53.3117 77.9668 -2.00952 28.2349 -30.8972 76.4157 -9.8124 -84.3287 1.02656 -0.103015 -4.79062 21.0248 13.7929 2.6908 -16.6164 12.258 2.14347 
41.1537 87.7517 -195.644 -177.361 -85.7944 -168.209 -167.546 16.0079 105.133 -97.7241 6.67348 6.42089 64.4687 2.47648 8.40211 30.9865 9.10832 -14.1576 175.543 31.3592 104.228 -58.9416 -17.2321 1.29475 79.4098 -11.1926 -7.31956 12.9478 -2.06715 6.3154 -1.49445 8.25245 -91.8565 10.3022 -3.82612 -3.35646 -1.36704 -3.97006 -3.18483 -23.8921 -2.64154 -4.35018 -3.87945 -2.64154 -4.35019 93.2859 -31.8307 -99.6799 36.694 10.65 14.9357 -34.9043 -26.7196 -67.9054 -29.2993 -0.309986 -16.391 -91.6537 -56.4797 77.7364 -8.50272 27.4012 -19.2824 78.5921 -9.13755 -84.6995 -3.02174 -0.0667861 -10.4179 22.6677 12.8641 3.05585 -15.8789 11.1661 2.1972 
41.1866 87.3703 -188.553 170.921 -85.2527 -179.854 -172.02 25.9546 103.691 -101.639 7.31928 7.26785 67.0768 3.84296 8.85749 27.8899 10.1276 -14.2331 175.141 25.8864 103.943 -60.9006 -17.2886 1.53951 86.2642 -14.956 -7.55922 11.5385 -2.43843 7.0248 -1.20529 8.33145 -91.9181 10.1475 -3.27606 -3.53172 -1.52369 -3.42824 -3.38421 -24.036 -2.06433 -4.35188 -4.02338 -2.06433 -4.35187 92.382 -31.8237 -101.45 36.0401 9.63232 4.68605 -34.4152 -17.8471 -67.6788 -25.8002 0.832767 -19.1711 -91.058 -56.915 78.6522 -16.1305 24.0699 -5.98204 78.5318 -10.8571 -85.7147 0.196894 -0.137494 -6.8288 21.7071 11.5944 4.13812 -13.845 9.69666 1.7754 
41.4797 87.171 -181.292 170.77 -85.5516 177.983 -174.867 34.6722 100.333 -99.9966 6.79574 7.05827 69.5112 5.02181 9.10357 27.6147 9.85898 -13.7405 175.347 20.5541 101.338 -61.7982 -16.9191 0.909512 93.1948 -18.1601 -5.82216 11.3454 -2.04385 6.39248 -0.756899 8.23301 -91.6954 10.3652 -2.28393 -3.16939 -1.30735 -2.42114 -3.06592 -23.8176 -1.22656 -3.7086 -3.80497 -1.22655 -3.70861 91.871 -31.4228 -102.574 33.862 8.69704 -3.26246 -30.4974 -26.5091 -71.3903 -38.1307 0.531528 -14.6738 -89.8531 -56.7086 80.2841 -20.4156 22.4219 6.16403 77.7785 -14.6009 -86.8136 2.83969 -0.147038 -5.58069 20.2341 9.40668 3.06541 -12.8396 7.87036 3.04214 
41.8655 87.9133 -173.504 -171.58 -85.2896 -166.639 -175.944 39.7378 97.4384 -92.2581 3.62802 6.10733 72.2927 6.22086 7.92911 26.4907 8.3864 -11.26 175.43 13.1094 98.0806 -59.2197 -19.6159 -0.0776346 95.5231 -19.4944 -5.83977 11.6903 -2.45435 7.04118 0.0365265 8.10272 -91.3006 10.6555 -0.525892 -2.53769 -1.01776 -0.637028 -2.51211 -23.5331 0.260833 -2.57842 -3.52043 0.26083 -2.57842 91.9404 -29.7051 -102.99 32.2099 8.37765 -6.86465 -35.9914 -28.8864 -84.0215 -44.3119 -1.35656 -8.82685 -88.3361 -54.7238 82.0634 -21.3861 23.6432 16.8726 76.3197 -18.9626 -87.6562 4.99576 -0.173753 -5.66228 17.2335 6.52689 -0.456742 -10.9384 6.07304 5.14183 
42.2307 89.4415 -165.53 -152.833 -83.6278 -150.167 -176.455 41.1657 95.7227 -80.1497 1.00411 4.64982 71.6074 5.96299 7.41828 27.9374 8.23351 -11.6035 174.791 4.39432 95.3014 -55.8587 -23.1498 -1.41296 92.6051 -18.5896 -7.84371 17.4552 -3.90246 9.35919 0.885515 8.05782 -90.9398 10.7651 1.32995 -1.99123 -0.90683 1.24104 -2.04781 -23.4396 1.86683 -1.49958 -3.4269 1.86683 -1.49959 91.7031 -26.266 -104.707 30.4562 10.62 -6.21552 -33.0429 -17.4789 -82.5028 -34.0691 0.950815 -15.9602 -86.8082 -54.0424 84.1423 -18.7354 26.4785 24.7587 74.9913 -22.6581 -88.0136 5.85445 -0.153288 -5.24104 14.5144 4.47002 -2.06823 -9.69499 4.57345 4.96571 
42.6376 91.3505 -156.654 -146.357 -81.1143 -145.905 -177.473 38.1775 94.6938 -64.7539 0.114131 3.23849 69.7568 5.35312 6.42314 27.888 7.22702 -10.1672 172.663 -1.54307 86.8003 -50.3014 -26.8916 -2.86552 86.3943 -15.0456 -7.79061 23.2404 -4.4891 10.5385 1.78826 8.15428 -90.5723 10.5928 3.29863 -1.43228 -1.07498 3.2324 -1.57618 -23.643 3.57647 -0.373567 -3.63036 3.57647 -0.37358 92.2224 -22.5449 -104.976 28.9536 11.5113 -3.78567 -30.3929 -12.2596 -84.8676 -33.0844 1.65537 -17.8369 -86.191 -50.9488 84.5704 -17.3772 28.5176 30.7144 74.6064 -25.5884 -88.1432 5.88497 -0.191015 -5.76856 13.4136 2.67069 -4.02377 -9.01954 3.42514 3.42771 
42.8805 93.1018 -147.566 -141.739 -79.4011 -143.544 -178.473 33.1206 93.9886 -46.3049 3.63274 2.05859 66.0526 4.16715 5.46014 27.9904 3.91076 -5.48753 169.236 -12.4371 83.3298 -43.7086 -32.4731 -4.70135 78.1283 -10.1395 -6.26096 26.7874 -5.03874 11.8271 2.51446 8.19588 -90.2171 10.5064 4.90891 -0.868429 -1.15575 4.86593 -1.08412 -23.765 4.94237 0.650756 -3.75233 4.94238 0.650753 92.5842 -19.0029 -105.697 26.2469 11.9143 -0.193763 -29.893 -10.6922 -90.1446 -31.6302 1.73222 -18.4796 -85.917 -46.1155 84.2709 -18.2115 27.732 36.1761 75.071 -28.3666 -88.9061 6.21506 -0.31423 -7.33756 11.9614 1.20138 -6.87327 -7.64599 2.66223 3.73671 
43.1256 93.9881 -138.33 -135.339 -77.9892 -139.717 -179.353 26.7605 93.4198 -26.1715 6.80722 1.29623 60.1099 2.5811 2.55687 28.7609 3.03987 -4.44416 166.085 -17.7961 76.871 -40.3244 -37.9549 -8.1986 72.1972 -6.70617 -4.34109 23.1984 -3.51064 8.49016 3.06864 8.11884 -89.8355 10.655 6.18717 -0.235714 -1.00122 6.17079 -0.50886 -23.6494 5.9709 1.64152 -3.63677 5.97091 1.64151 92.833 -15.4406 -106.748 23.4163 10.4428 3.19403 -29.9047 -9.08868 -92.8553 -31.0337 2.03967 -19.8372 -84.9507 -39.3412 84.7644 -21.4192 25.9269 41.7204 75.3694 -31.0578 -89.9428 8.29885 -0.340407 -7.04484 8.83164 0.547763 -9.56568 -5.51242 2.46961 4.32879 
42.9753 93.8878 -129.711 -123.072 -76.3991 -127.453 -179.04 21.5888 96.0533 -7.99925 12.2034 0.731283 53.7945 1.12753 -0.321531 27.5434 0.456551 -0.500881 167.742 -20.9472 76.7199 -41.3279 -34.4441 -11.3746 72.1961 -6.60201 -4.96033 16.4691 -2.90874 7.57107 3.56775 7.82151 -89.7692 11.2581 7.20779 -0.253661 -0.392831 7.1896 -0.572327 -23.0814 6.94911 1.93509 -3.06879 6.94911 1.93508 93.5257 -10.6347 -107.482 22.3977 7.90332 5.32958 -28.5316 -7.6219 -94.871 -29.4692 2.21494 -20.7415 -82.4767 -32.4709 88.1974 -24.8375 23.8429 45.6211 76.618 -34.1183 -90.6814 7.88378 -0.567343 -9.68084 5.92272 0.966922 -9.84711 -3.3697 2.78553 3.32242 
42.7646 93.529 -121.374 -115.089 -73.9558 -118.802 -178.824 22.3074 99.1259 -8.17681 18.9874 1.30858 54.2807 0.52399 -0.322035 21.9181 -1.69219 3.38602 169.041 -23.0781 76.6779 -42.0976 -23.4013 -12.0135 76.2548 -8.8022 -5.18977 15.0799 -1.81349 5.74111 3.88596 7.55358 -89.7791 11.8055 7.83221 -0.390044 0.158096 7.80741 -0.736528 -22.5597 7.58513 1.99591 -2.54709 7.58514 1.99591 94.1789 -7.03909 -107.738 23.3012 7.08253 7.54573 -21.9823 -6.49637 -97.3427 -27.4981 3.10184 -23.5794 -81.0038 -25.5927 90.2845 -28.5017 20.5114 50.9306 76.644 -37.5835 -92.1437 8.08312 -0.641228 -10.3816 3.59358 1.7901 -10.0512 -1.15789 3.49106 2.32748 
42.5704 92.3949 -113.02 -113.267 -72.0981 -115.636 -177.822 22.912 101.492 -13.3336 23.4085 2.00212 54.3576 0.060681 0.309421 21.4056 0.200652 0.946538 169.459 -23.501 76.9326 -46.2202 -9.25317 -10.9932 80.4819 -10.6342 -4.51518 10.1228 -1.28125 5.25592 3.86066 7.41799 -89.8713 12.084 7.73594 -0.592184 0.435927 7.70233 -0.934137 -22.2793 7.55411 1.77394 -2.26667 7.55411 1.77393 93.9777 -7.47264 -108.079 24.1181 8.0955 10.5484 -16.0103 -6.04191 -102.344 -26.5827 3.7297 -24.8431 -80.6676 -23.3278 90.7416 -29.1409 14.6346 55.5058 73.7375 -39.66 -95.7512 8.91786 -0.78597 -11.3938 3.61242 2.77212 -10.728 -0.677371 4.58252 2.42858 
42.3225 90.7194 -104.902 -119.245 -70.5209 -120.736 -177.259 22.2155 102.62 -22.902 23.2497 3.48202 54.2795 -0.236952 -3.52237 22.7895 -3.55836 5.71858 169.104 -23.7232 76.7277 -54.1154 2.9694 -9.49445 82.7716 -11.8584 -4.93154 9.73944 -0.309398 3.76759 3.52006 7.57748 -89.9801 11.7607 7.01039 -0.700261 0.108338 6.97275 -1.00963 -22.5756 6.89512 1.44942 -2.56301 6.89514 1.44942 93.0431 -10.9604 -108.647 25.546 9.58398 15.3414 -15.2782 -5.06759 -110.269 -26.6467 3.83099 -24.8149 -80.7554 -26.2288 90.8663 -27.0318 10.3797 55.8228 70.4735 -39.9618 -99.2808 8.76974 -0.77283 -11.3564 5.05155 4.24019 -10.2311 -1.30929 6.04456 2.29011 
42.1241 88.4491 -97.7813 -122.739 -70.3749 -124.075 -176.286 22.1617 103.806 -32.2867 27.9328 4.71893 57.2648 0.302847 -2.93661 40.5154 -3.43684 3.92129 170.281 -19.8154 78.3388 -67.2019 6.36012 -7.33304 83.4042 -13.0167 -9.19861 11.4218 -1.12554 4.89401 3.07608 7.73034 -89.9944 11.4431 6.12315 -0.610665 -0.213667 6.09032 -0.880561 -22.8619 6.02251 1.26472 -2.84926 6.02252 1.26472 93.2672 -14.3803 -106.164 31.6653 5.33648 18.5825 -17.6259 -0.291302 -113.997 -24.9191 2.99139 -22.6296 -81.3491 -32.8642 90.3421 -23.3904 9.18095 48.442 69.8665 -37.6606 -99.8979 8.0808 -0.549409 -9.40682 8.16925 5.38316 -9.53708 -1.59778 7.25815 2.32838 
41.802 86.5102 -92.0626 -123.42 -72.3506 -128.556 -173.795 27.4216 100.326 -46.5684 30.0705 3.21102 68.2462 3.9737 -1.48732 36.3023 -2.90773 3.33956 171.941 -10.9001 78.2592 -82.607 5.15019 -5.15954 87.576 -13.7116 -4.80657 10.4674 -0.484831 3.96689 2.18657 7.99743 -89.4393 10.8768 4.61302 0.69041 -0.785966 4.63893 0.486272 -23.3767 4.19181 2.04711 -3.36403 4.19181 2.0471 93.6386 -19.5954 -102.951 39.6766 -1.49552 19.7126 -20.838 4.08663 -108.001 -22.9969 2.77659 -23.7038 -82.2696 -45.8658 90.0607 -11.4104 7.79731 34.0332 65.0796 -32.7057 -101.875 5.87761 -0.376726 -8.20417 15.2333 7.25366 -8.91139 -4.16757 9.45345 0.249032 
